<?xml version="1.0" standalone="no"?>
<!DOCTYPE svg PUBLIC "-//W3C//DTD SVG 20010904//EN"
 "http://www.w3.org/TR/2001/REC-SVG-20010904/DTD/svg10.dtd">
<svg version="1.0" xmlns="http://www.w3.org/2000/svg"
 width="32.000000pt" height="31.000000pt" viewBox="0 0 32.000000 31.000000"
 preserveAspectRatio="xMidYMid meet">

<g transform="translate(0.000000,31.000000) scale(0.100000,-0.100000)"
fill="#000000" stroke="none">
<path d="M74 271 c-18 -11 -39 -30 -48 -42 -20 -29 -20 -85 -1 -119 8 -14 14
-40 15 -58 0 -31 1 -32 23 -20 12 6 47 11 79 9 163 -7 234 163 98 234 -41 21
-128 19 -166 -4z m143 -2 c96 -36 108 -149 20 -196 -39 -21 -177 -26 -177 -6
0 6 -9 28 -21 48 -58 98 59 199 178 154z"/>
<path d="M80 175 c0 -8 7 -15 15 -15 8 0 15 7 15 15 0 8 -7 15 -15 15 -8 0
-15 -7 -15 -15z"/>
<path d="M150 175 c0 -8 7 -15 15 -15 8 0 15 7 15 15 0 8 -7 15 -15 15 -8 0
-15 -7 -15 -15z"/>
<path d="M220 175 c0 -8 7 -15 15 -15 8 0 15 7 15 15 0 8 -7 15 -15 15 -8 0
-15 -7 -15 -15z"/>
</g>
</svg>
