<?xml version="1.0" standalone="no"?>
<!DOCTYPE svg PUBLIC "-//W3C//DTD SVG 20010904//EN"
 "http://www.w3.org/TR/2001/REC-SVG-20010904/DTD/svg10.dtd">
<svg version="1.0" xmlns="http://www.w3.org/2000/svg"
 width="360.000000pt" height="360.000000pt" viewBox="0 0 360.000000 360.000000"
 preserveAspectRatio="xMidYMid meet">

<g transform="translate(0.000000,360.000000) scale(0.100000,-0.100000)"
fill="#000000" stroke="none">
<path d="M960 3036 c-298 -63 -508 -304 -575 -659 -19 -99 -19 -301 -1 -387
32 -152 109 -282 240 -407 100 -97 162 -141 402 -289 220 -135 292 -185 392
-272 158 -138 322 -330 360 -419 17 -43 32 -56 32 -29 0 37 132 208 255 332
169 170 291 266 505 399 209 131 297 193 414 295 45 40 121 139 159 210 53 98
78 190 84 310 15 295 -81 571 -257 733 -279 259 -686 241 -968 -43 -70 -71
-149 -183 -178 -253 -10 -26 -21 -47 -24 -47 -3 0 -21 30 -39 68 -84 171 -224
318 -376 395 -128 64 -299 89 -425 63z"/>
</g>
</svg>
