<?xml version="1.0" standalone="no"?>
<!DOCTYPE svg PUBLIC "-//W3C//DTD SVG 20010904//EN"
 "http://www.w3.org/TR/2001/REC-SVG-20010904/DTD/svg10.dtd">
<svg version="1.0" xmlns="http://www.w3.org/2000/svg"
 width="800.000000pt" height="800.000000pt" viewBox="0 0 800.000000 800.000000"
 preserveAspectRatio="xMidYMid meet">

<g transform="translate(0.000000,800.000000) scale(0.100000,-0.100000)"
fill="#000000" stroke="none">
<path d="M3875 7494 c-1295 -56 -2428 -793 -2995 -1949 -179 -365 -286 -728
-336 -1140 -23 -191 -23 -589 0 -780 79 -653 320 -1236 729 -1765 101 -130
419 -450 547 -551 232 -183 418 -300 675 -425 345 -167 668 -263 1076 -321
180 -25 671 -25 859 0 559 76 1047 258 1500 561 765 511 1302 1307 1479 2195
56 276 65 380 65 696 0 317 -10 429 -64 695 -297 1476 -1540 2608 -3035 2764
-147 16 -382 25 -500 20z m585 -403 c516 -80 993 -281 1405 -591 227 -171 385
-325 568 -552 676 -840 860 -1992 482 -3015 -45 -121 -175 -390 -242 -500
l-49 -82 -82 162 c-134 266 -282 474 -487 686 -284 294 -596 505 -967 656
l-137 55 -49 -30 c-139 -85 -374 -172 -557 -206 -152 -29 -492 -26 -631 4
-160 35 -288 80 -441 157 l-143 72 -117 -46 c-347 -137 -676 -354 -943 -621
-272 -271 -471 -573 -626 -949 -10 -23 -13 -20 -62 56 -420 656 -578 1460
-436 2233 83 453 279 905 552 1273 521 703 1286 1149 2147 1252 182 21 637 14
815 -14z"/>
<path d="M3845 6596 c-239 -39 -449 -134 -641 -288 -135 -108 -253 -259 -339
-429 -95 -191 -135 -363 -135 -583 0 -370 125 -673 384 -932 258 -257 565
-385 926 -385 756 -1 1347 612 1316 1366 -14 348 -136 626 -386 875 -196 197
-398 307 -670 366 -101 22 -351 27 -455 10z"/>
</g>
</svg>
